<svg width="98" height="26" viewBox="0 0 98 26" fill="none" xmlns="http://www.w3.org/2000/svg">
<g clip-path="url(#clip0_2822_5975)">
<path d="M88.3271 12.337V9.73064C88.3271 3.19763 83.5971 0.13205 75.3858 0.13205H75.1154C74.8622 0.13205 74.609 0.143531 74.3731 0.143531C66.7315 0.373162 61.5297 3.19189 61.4319 10.6951V10.7066H68.5556V10.0177C68.5556 7.19895 70.863 6.77987 73.5848 6.72247C73.8552 6.71099 74.1314 6.71099 74.4134 6.71099H74.7586C78.3665 6.71099 79.972 8.03136 79.972 9.88564V11.7801H68.9008C64.0213 11.7801 61.5239 14.9433 61.5239 18.8872C61.5239 22.5498 63.3941 24.7485 66.8869 25.5982C67.117 25.6498 67.3587 25.7015 67.6119 25.7474C67.8651 25.7876 68.124 25.8335 68.3887 25.8622C68.5959 25.8909 68.8203 25.9139 69.039 25.9254C69.1655 25.9483 69.3036 25.9541 69.4245 25.9541C69.6892 25.9656 69.9596 25.977 70.2416 25.9828C70.3912 25.9943 70.5466 25.9943 70.7019 25.9943C73.8495 25.9943 76.0246 25.4604 77.4804 24.5476C78.7808 23.7439 79.5289 22.6417 79.9259 21.3442C80.1158 20.7874 80.2309 20.1903 80.2942 19.5646V26.0058H87.3776C87.6711 26.0058 88.0912 26.0058 88.3213 25.9943V18.7724H81.8766C83.6489 18.7724 85.2658 18.049 86.4282 16.9009C87.5905 15.7298 88.3156 14.1281 88.3156 12.3484L88.3271 12.337ZM73.93 19.7598C73.7919 19.7598 73.6596 19.7598 73.5215 19.7483H73.3834C72.198 19.7483 71.0875 19.5703 70.3164 19.2431C69.6431 18.9733 69.2231 18.5944 69.2231 18.1466C69.2231 17.0788 70.4487 16.1029 73.5272 16.1029H79.972V16.1431C79.972 16.3096 79.9604 16.4703 79.9317 16.6253C79.6037 18.7379 77.0661 19.754 73.93 19.754V19.7598Z" fill="#000E54"/>
<path d="M45.6827 25.9885C36.7982 25.9885 30.7505 21.3155 30.7505 13.0373C30.7505 4.75912 36.7982 0.13205 45.6827 0.13205C53.7328 0.13205 59.4468 3.88078 60.517 10.7008H51.9778C51.3448 8.07155 49.3941 6.90043 45.6827 6.90043C41.0966 6.90043 39.1919 8.80063 39.1919 13.0373C39.1919 17.274 41.1944 19.2201 45.6827 19.2201C49.2445 19.2201 51.1952 18.049 51.9317 15.6666H60.471C59.3489 22.2857 53.6407 25.9885 45.6827 25.9885Z" fill="#000E54"/>
<path d="M16.8196 0.378887C8.02713 -0.901307 1.36375 2.84742 0.166876 10.9936C-0.074801 12.6584 -0.0517841 14.2084 0.207155 15.6321H0.201401C1.33498 22.3029 7.00288 25.9943 14.9437 25.9943C22.0156 25.9943 27.3153 23.032 29.1624 17.6299H19.9384C18.8968 18.7264 17.2742 19.2316 14.9437 19.2316C11.3416 19.2316 9.4254 18.0605 8.70037 15.6321H29.6227C31.3144 6.13689 24.3058 1.47538 16.8196 0.378887ZM7.3654 12.0384C8.05015 8.04857 11.4912 6.43541 15.8356 7.07838C19.5068 7.61227 21.2215 9.04747 21.515 11.7456L7.37115 12.0384H7.3654Z" fill="#000E54"/>
<path d="M89.5298 0H97.9252C97.9252 3.5478 95.0423 6.42968 91.4805 6.42968H89.5298V0ZM97.9252 6.42968V25.9885H89.5298V6.42968H97.9252Z" fill="#000E54"/>
<path d="M98 0C98 1.76816 97.275 3.38132 96.0953 4.54096C94.9157 5.70634 93.293 6.42967 91.4977 6.42967H89.5298V0H98.0057H98Z" fill="#00C52C"/>
</g>
<defs>
<clipPath id="clip0_2822_5975">
<rect width="98" height="26" fill="white"/>
</clipPath>
</defs>
</svg>
