<svg xmlns="http://www.w3.org/2000/svg" viewBox="0 0 64 64">
  <defs>
    <linearGradient id="bewise-mark-gradient" x1="8" x2="56" y1="8" y2="56" gradientUnits="userSpaceOnUse">
      <stop offset="0" stop-color="#1278ff"/>
      <stop offset="0.48" stop-color="#372bff"/>
      <stop offset="1" stop-color="#7b22ff"/>
    </linearGradient>
  </defs>
  <rect width="64" height="64" rx="14" fill="#fff"/>
  <path
    fill="url(#bewise-mark-gradient)"
    d="M15 10h22.5c9.3 0 16.5 6.5 16.5 15.1 0 4.7-2 8.4-5.3 10.8 3.8 2.2 6.3 6.3 6.3 11.5C55 56.5 47.7 63 38 63H15.4c-2.3 0-3.8-2.4-2.8-4.5l4.2-8.6c.6-1.2 1.8-2 3.2-2h17.2c3.3 0 5.8-2 5.8-5s-2.5-5-5.8-5H27.8c-2.3 0-3.8-2.4-2.8-4.5l3.2-6.5c.6-1.2 1.8-2 3.2-2h6.2c3 0 5.2-1.8 5.2-4.6s-2.2-4.5-5.2-4.5H20.1c-1.3 0-2.5-.8-3.1-2l-4.7-9.4C11.3 12.4 12.8 10 15 10Z"
  />
  <circle cx="22.4" cy="36.4" r="5.1" fill="url(#bewise-mark-gradient)"/>
</svg>
